<svg width="16" height="16" viewBox="0 0 16 16" fill="none" xmlns="http://www.w3.org/2000/svg">
<path d="M3.0046 1.08011C2.4663 0.670426 1.69466 0.711395 1.20303 1.20302C0.6667 1.73934 0.666699 2.60888 1.20303 3.14519L6.05872 8.00078L1.20303 12.8564L1.08012 12.997C0.670424 13.5353 0.711393 14.3069 1.20303 14.7985C1.73936 15.3349 2.60892 15.3349 3.14524 14.7985L8.00093 9.94296L12.8563 14.7982L12.997 14.9211C13.5353 15.3308 14.3069 15.2899 14.7985 14.7982C15.3349 14.2619 15.3349 13.3924 14.7985 12.8561L9.94315 8.00078L14.7985 3.1455L14.9214 3.00486C15.3311 2.46657 15.2902 1.69494 14.7985 1.20332C14.2622 0.667004 13.3926 0.667004 12.8563 1.20332L8.00093 6.05861L3.14524 1.20302L3.0046 1.08011Z" fill="#777777"/>
</svg>
