<svg width="12" height="6" viewBox="0 0 12 6" fill="none" xmlns="http://www.w3.org/2000/svg">
<path d="M11.1535 1.56944C11.468 1.29988 11.5044 0.826401 11.2348 0.511907C10.9652 0.197412 10.4918 0.160991 10.1773 0.430558L11.1535 1.56944ZM5.9987 5L5.5106 5.56944C5.79147 5.81019 6.20592 5.81019 6.48679 5.56944L5.9987 5ZM1.82012 0.430558C1.50563 0.160991 1.03216 0.197412 0.762589 0.511906C0.493022 0.826401 0.529443 1.29988 0.843938 1.56944L1.82012 0.430558ZM10.1773 0.430558L5.5106 4.43056L6.48679 5.56944L11.1535 1.56944L10.1773 0.430558ZM6.48679 4.43056L1.82012 0.430558L0.843938 1.56944L5.5106 5.56944L6.48679 4.43056Z" fill="#111111"/>
</svg>
