<svg width="12" height="7" viewBox="0 0 12 7" fill="none" xmlns="http://www.w3.org/2000/svg">
<path d="M11.4881 1.76866C11.8026 1.4991 11.839 1.02562 11.5694 0.711126C11.2999 0.396631 10.8264 0.36021 10.5119 0.629777L11.4881 1.76866ZM6 5.48493L5.51191 6.05438C5.79277 6.29512 6.20723 6.29512 6.48809 6.05438L6 5.48493ZM1.48809 0.629776C1.1736 0.36021 0.700124 0.396631 0.430558 0.711125C0.160991 1.02562 0.197412 1.49909 0.511906 1.76866L1.48809 0.629776ZM10.5119 0.629777L5.51191 4.91549L6.48809 6.05438L11.4881 1.76866L10.5119 0.629777ZM6.48809 4.91549L1.48809 0.629776L0.511906 1.76866L5.51191 6.05438L6.48809 4.91549Z" fill="#777777"/>
</svg>
