<svg width="20" height="21" viewBox="0 0 20 21" fill="none" xmlns="http://www.w3.org/2000/svg">
<path opacity="0.5" d="M16.6654 9.50065V10.5007C16.6654 13.6433 16.6654 15.2147 15.6891 16.191C14.7127 17.1673 13.1414 17.1673 9.9987 17.1673C6.856 17.1673 5.28465 17.1673 4.30834 16.191C3.33203 15.2147 3.33203 13.6433 3.33203 10.5007C3.33203 7.35795 3.33203 5.78661 4.30834 4.8103C5.28465 3.83398 6.856 3.83398 9.9987 3.83398H10.9987" stroke="#126BFB" stroke-width="1.5" stroke-linecap="round"/>
<path d="M13.5326 4.37148L13.1001 4.80402L9.12348 8.7806C8.85414 9.04995 8.71947 9.18462 8.60365 9.33311C8.46703 9.50827 8.34989 9.6978 8.25432 9.89833C8.17331 10.0683 8.11308 10.249 7.99263 10.6104L7.60698 11.7673L7.35744 12.5159C7.29816 12.6938 7.34445 12.8898 7.47699 13.0224C7.60954 13.1549 7.8056 13.2012 7.98342 13.1419L8.73203 12.8924L9.88898 12.5067L9.88899 12.5067C10.2503 12.3863 10.431 12.326 10.601 12.245C10.8016 12.1495 10.9911 12.0323 11.1662 11.8957C11.3147 11.7799 11.4494 11.6452 11.7187 11.3759L15.6953 7.39929L16.1279 6.96674C16.8445 6.25008 16.8445 5.08814 16.1279 4.37148C15.4112 3.65482 14.2493 3.65482 13.5326 4.37148Z" stroke="#126BFB" stroke-width="1.5"/>
<path opacity="0.5" d="M13.1025 4.80273C13.1025 4.80273 13.1565 5.72189 13.9675 6.53291C14.7786 7.34393 15.6977 7.398 15.6977 7.398M8.73443 12.8911L7.60938 11.766" stroke="#126BFB" stroke-width="1.5"/>
</svg>
