<svg width="46" height="48" viewBox="0 0 46 48" fill="none" xmlns="http://www.w3.org/2000/svg">
<path d="M21.1844 0.555195C18.4846 2.00433 10.0081 6.86787 9.98828 6.94728C9.98828 7.00683 15.0106 9.9051 21.1248 13.3791C29.4822 18.1433 32.3011 19.8505 32.44 20.2079C32.5393 20.4659 32.6187 26.2228 32.6187 33.1905C32.6187 44.9623 32.6385 45.6968 32.9562 45.5777C33.8296 45.2402 43.8743 39.3841 44.45 38.8481L45.125 38.2724V25.6272C45.125 13.8158 45.1051 12.9423 44.7875 12.6644C44.1125 12.0689 22.9511 -0.000637054 22.574 -0.000637054C22.3754 -0.000637054 21.7402 0.237579 21.1844 0.555195Z" fill="#0067FF"/>
<path d="M10.563 13.8957C10.1461 14.0148 0.43885 19.4739 0.00212246 19.851C-0.0971337 19.9304 3.29743 21.9751 7.54559 24.3771C11.7739 26.7791 15.4265 28.8833 15.6449 29.062C16.0221 29.3399 16.0419 29.6377 16.1412 38.6699L16.2404 48L20.4092 45.6377C26.841 41.9851 27.0196 41.8858 27.238 41.3102C27.3968 40.9528 27.4365 37.8958 27.4167 31.7617L27.3571 22.7295L19.635 18.3225C15.4067 15.9205 11.7342 13.8957 11.496 13.856C11.2578 13.8163 10.8409 13.8361 10.563 13.8957Z" fill="#0067FF"/>
<path d="M5.38201 35.4744C2.34477 37.2014 -0.0572249 38.6704 0.0420313 38.7697C0.121436 38.8491 2.60284 40.2982 5.54082 41.9856L10.8808 45.0625L10.9404 41.8863C10.9602 40.1394 10.9602 37.2808 10.9404 35.5339L10.8808 32.3577L5.38201 35.4744Z" fill="#0067FF"/>
</svg>
