<svg width="81" height="80" viewBox="0 0 81 80" fill="none" xmlns="http://www.w3.org/2000/svg">
<path d="M16.668 66H64.668" stroke="#126BFB" stroke-width="4" stroke-linecap="round" stroke-linejoin="round"/>
<path d="M16.668 37.3992C16.668 34.9479 16.668 33.7223 17.449 32.9607C18.2301 32.1992 19.4871 32.1992 22.0013 32.1992C24.5155 32.1992 25.7725 32.1992 26.5536 32.9607C27.3346 33.7223 27.3346 34.9479 27.3346 37.3992V52.9992C27.3346 55.4506 27.3346 56.6762 26.5536 57.4377C25.7725 58.1993 24.5155 58.1993 22.0013 58.1993C19.4871 58.1993 18.2301 58.1993 17.449 57.4377C16.668 56.6762 16.668 55.4506 16.668 52.9992V37.3992Z" stroke="#126BFB" stroke-width="4"/>
<path d="M35.3359 27.0008C35.3359 24.5495 35.3359 23.3238 36.117 22.5623C36.898 21.8008 38.1551 21.8008 40.6693 21.8008C43.1834 21.8008 44.4405 21.8008 45.2216 22.5623C46.0026 23.3238 46.0026 24.5495 46.0026 27.0008V53.0008C46.0026 55.4521 46.0026 56.6778 45.2216 57.4393C44.4405 58.2008 43.1834 58.2008 40.6693 58.2008C38.1551 58.2008 36.898 58.2008 36.117 57.4393C35.3359 56.6778 35.3359 55.4521 35.3359 53.0008V27.0008Z" stroke="#126BFB" stroke-width="4"/>
<path d="M54 19.2C54 16.7487 54 15.523 54.781 14.7615C55.5621 14 56.8192 14 59.3333 14C61.8475 14 63.1046 14 63.8856 14.7615C64.6667 15.523 64.6667 16.7487 64.6667 19.2V53.0001C64.6667 55.4514 64.6667 56.677 63.8856 57.4385C63.1046 58.2001 61.8475 58.2001 59.3333 58.2001C56.8192 58.2001 55.5621 58.2001 54.781 57.4385C54 56.677 54 55.4514 54 53.0001V19.2Z" stroke="#126BFB" stroke-width="4"/>
</svg>
