<svg width="18" height="18" viewBox="0 0 18 18" fill="none" xmlns="http://www.w3.org/2000/svg">
<path d="M14.4881 7.76866C14.8026 7.4991 14.839 7.02562 14.5694 6.71113C14.2999 6.39663 13.8264 6.36021 13.5119 6.62978L14.4881 7.76866ZM9 11.4849L8.51191 12.0544C8.79277 12.2951 9.20723 12.2951 9.48809 12.0544L9 11.4849ZM4.48809 6.62978C4.1736 6.36021 3.70012 6.39663 3.43056 6.71113C3.16099 7.02562 3.19741 7.49909 3.51191 7.76866L4.48809 6.62978ZM13.5119 6.62978L8.51191 10.9155L9.48809 12.0544L14.4881 7.76866L13.5119 6.62978ZM9.48809 10.9155L4.48809 6.62978L3.51191 7.76866L8.51191 12.0544L9.48809 10.9155Z" fill="#777777"/>
</svg>
