<svg width="81" height="80" viewBox="0 0 81 80" fill="none" xmlns="http://www.w3.org/2000/svg">
<path d="M16.332 35.7784C16.332 27.2515 16.332 22.9881 17.3387 21.5537C18.3454 20.1194 22.3542 18.7472 30.3718 16.0028L31.8993 15.4799C36.0787 14.0493 38.1683 13.334 40.332 13.334C42.4957 13.334 44.5854 14.0493 48.7648 15.4799L50.2923 16.0028C58.3098 18.7472 62.3186 20.1194 63.3253 21.5537C64.332 22.9881 64.332 27.2515 64.332 35.7784C64.332 37.0664 64.332 38.4631 64.332 39.9776C64.332 55.0125 53.0281 62.3086 45.9359 65.4067C44.012 66.2471 43.0501 66.6673 40.332 66.6673C37.614 66.6673 36.6521 66.2471 34.7282 65.4067C27.6359 62.3086 16.332 55.0125 16.332 39.9776C16.332 38.4631 16.332 37.0664 16.332 35.7784Z" stroke="#126BFB" stroke-width="4"/>
<path d="M16.332 37.334L40.332 29.334L64.332 37.334" stroke="#126BFB" stroke-width="4"/>
<path d="M38.332 13.334V65.334H42.332V13.334H38.332Z" fill="#126BFB"/>
</svg>
