<svg width="80" height="80" viewBox="0 0 80 80" fill="none" xmlns="http://www.w3.org/2000/svg">
<path d="M66.6654 66.666L13.332 66.666" stroke="#126BFB" stroke-width="4" stroke-linecap="round"/>
<path d="M12.0826 35.7707C11.2201 36.4608 11.0803 37.7193 11.7703 38.5819C12.4603 39.4444 13.7189 39.5842 14.5814 38.8942L12.0826 35.7707ZM35.0011 19.9972L36.2505 21.5589V21.5589L35.0011 19.9972ZM65.416 38.8942C66.2785 39.5842 67.5371 39.4444 68.2271 38.5819C68.9171 37.7193 68.7773 36.4608 67.9148 35.7707L65.416 38.8942ZM44.9963 19.9972L43.7469 21.5589V21.5589L44.9963 19.9972ZM14.5814 38.8942L36.2505 21.5589L33.7517 18.4355L12.0826 35.7707L14.5814 38.8942ZM67.9148 35.7707L46.2456 18.4355L43.7469 21.5589L65.416 38.8942L67.9148 35.7707ZM36.2505 21.5589C38.4418 19.8059 41.5556 19.8059 43.7469 21.5589L46.2456 18.4355C42.5935 15.5137 37.4039 15.5137 33.7517 18.4355L36.2505 21.5589Z" fill="#126BFB"/>
<path d="M47.332 22.6667C47.332 23.7712 48.2275 24.6667 49.332 24.6667C50.4366 24.6667 51.332 23.7712 51.332 22.6667H47.332ZM56.6654 30.6667C56.6654 31.7712 57.5608 32.6667 58.6654 32.6667C59.7699 32.6667 60.6654 31.7712 60.6654 30.6667H56.6654ZM51.332 22.6667V17.3333H47.332V22.6667H51.332ZM50.6654 18H57.332V14H50.6654V18ZM56.6654 17.3333V30.6667H60.6654V17.3333H56.6654ZM57.332 18C56.9638 18 56.6654 17.7015 56.6654 17.3333H60.6654C60.6654 15.4924 59.173 14 57.332 14V18ZM51.332 17.3333C51.332 17.7015 51.0336 18 50.6654 18V14C48.8244 14 47.332 15.4924 47.332 17.3333H51.332Z" fill="#126BFB"/>
<path d="M18.6641 66.6673V33.334" stroke="#126BFB" stroke-width="4" stroke-linecap="round"/>
<path d="M59.332 66.6673C59.332 67.7719 60.2275 68.6673 61.332 68.6673C62.4366 68.6673 63.332 67.7719 63.332 66.6673H59.332ZM63.332 33.334C63.332 32.2294 62.4366 31.334 61.332 31.334C60.2275 31.334 59.332 32.2294 59.332 33.334H63.332ZM63.332 66.6673V33.334H59.332V66.6673H63.332Z" fill="#126BFB"/>
<path d="M47.9961 66.6673V53.334C47.9961 49.5627 47.9961 47.6771 46.8245 46.5056C45.6529 45.334 43.7673 45.334 39.9961 45.334C36.2249 45.334 34.3392 45.334 33.1677 46.5056C31.9961 47.6771 31.9961 49.5627 31.9961 53.334V66.6673" stroke="#126BFB" stroke-width="4"/>
<path d="M45.3307 33.3333C45.3307 36.2789 42.9429 38.6667 39.9974 38.6667C37.0519 38.6667 34.6641 36.2789 34.6641 33.3333C34.6641 30.3878 37.0519 28 39.9974 28C42.9429 28 45.3307 30.3878 45.3307 33.3333Z" stroke="#126BFB" stroke-width="4"/>
</svg>
