<svg width="210" height="48" viewBox="0 0 210 48" fill="none" xmlns="http://www.w3.org/2000/svg">
<path d="M21.1844 0.555195C18.4846 2.00433 10.0081 6.86787 9.98828 6.94728C9.98828 7.00683 15.0106 9.9051 21.1248 13.3791C29.4822 18.1433 32.3011 19.8505 32.44 20.2079C32.5393 20.4659 32.6187 26.2228 32.6187 33.1905C32.6187 44.9623 32.6385 45.6968 32.9562 45.5777C33.8296 45.2402 43.8743 39.3841 44.45 38.8481L45.125 38.2724V25.6272C45.125 13.8158 45.1051 12.9423 44.7875 12.6644C44.1125 12.0689 22.9511 -0.000637054 22.574 -0.000637054C22.3754 -0.000637054 21.7402 0.237579 21.1844 0.555195Z" fill="#0067FF"/>
<path d="M10.563 13.8957C10.1461 14.0148 0.43885 19.4739 0.00212246 19.851C-0.0971337 19.9304 3.29743 21.9751 7.54559 24.3771C11.7739 26.7791 15.4265 28.8833 15.6449 29.062C16.0221 29.3399 16.0419 29.6377 16.1412 38.6699L16.2404 48L20.4092 45.6377C26.841 41.9851 27.0196 41.8858 27.238 41.3102C27.3968 40.9528 27.4365 37.8958 27.4167 31.7617L27.3571 22.7295L19.635 18.3225C15.4067 15.9205 11.7342 13.8957 11.496 13.856C11.2578 13.8163 10.8409 13.8361 10.563 13.8957Z" fill="#0067FF"/>
<path d="M5.38201 35.4744C2.34477 37.2014 -0.0572249 38.6704 0.0420313 38.7697C0.121436 38.8491 2.60284 40.2982 5.54082 41.9856L10.8808 45.0625L10.9404 41.8863C10.9602 40.1394 10.9602 37.2808 10.9404 35.5339L10.8808 32.3577L5.38201 35.4744Z" fill="#0067FF"/>
<path d="M60.887 17.936V30.5H58.367V17.936H60.887ZM68.9028 20.384C70.0908 20.384 71.0508 20.762 71.7828 21.518C72.5148 22.262 72.8808 23.306 72.8808 24.65V30.5H70.3608V24.992C70.3608 24.2 70.1628 23.594 69.7668 23.174C69.3708 22.742 68.8308 22.526 68.1468 22.526C67.4508 22.526 66.8988 22.742 66.4908 23.174C66.0948 23.594 65.8968 24.2 65.8968 24.992V30.5H63.3768V20.528H65.8968V21.77C66.2328 21.338 66.6588 21.002 67.1748 20.762C67.7028 20.51 68.2788 20.384 68.9028 20.384ZM74.6292 25.478C74.6292 24.47 74.8272 23.576 75.2232 22.796C75.6312 22.016 76.1832 21.416 76.8792 20.996C77.5752 20.576 78.3492 20.366 79.2012 20.366C79.8492 20.366 80.4672 20.51 81.0552 20.798C81.6432 21.074 82.1112 21.446 82.4592 21.914V17.18H85.0152V30.5H82.4592V29.024C82.1472 29.516 81.7092 29.912 81.1452 30.212C80.5812 30.512 79.9272 30.662 79.1832 30.662C78.3432 30.662 77.5752 30.446 76.8792 30.014C76.1832 29.582 75.6312 28.976 75.2232 28.196C74.8272 27.404 74.6292 26.498 74.6292 25.478ZM82.4772 25.514C82.4772 24.902 82.3572 24.38 82.1172 23.948C81.8772 23.504 81.5532 23.168 81.1452 22.94C80.7372 22.7 80.2992 22.58 79.8312 22.58C79.3632 22.58 78.9312 22.694 78.5352 22.922C78.1392 23.15 77.8152 23.486 77.5632 23.93C77.3232 24.362 77.2032 24.878 77.2032 25.478C77.2032 26.078 77.3232 26.606 77.5632 27.062C77.8152 27.506 78.1392 27.848 78.5352 28.088C78.9432 28.328 79.3752 28.448 79.8312 28.448C80.2992 28.448 80.7372 28.334 81.1452 28.106C81.5532 27.866 81.8772 27.53 82.1172 27.098C82.3572 26.654 82.4772 26.126 82.4772 25.514ZM91.9044 30.662C90.9444 30.662 90.0804 30.452 89.3124 30.032C88.5444 29.6 87.9384 28.994 87.4944 28.214C87.0624 27.434 86.8464 26.534 86.8464 25.514C86.8464 24.494 87.0684 23.594 87.5124 22.814C87.9684 22.034 88.5864 21.434 89.3664 21.014C90.1464 20.582 91.0164 20.366 91.9764 20.366C92.9364 20.366 93.8064 20.582 94.5864 21.014C95.3664 21.434 95.9784 22.034 96.4224 22.814C96.8784 23.594 97.1064 24.494 97.1064 25.514C97.1064 26.534 96.8724 27.434 96.4044 28.214C95.9484 28.994 95.3244 29.6 94.5324 30.032C93.7524 30.452 92.8764 30.662 91.9044 30.662ZM91.9044 28.466C92.3604 28.466 92.7864 28.358 93.1824 28.142C93.5904 27.914 93.9144 27.578 94.1544 27.134C94.3944 26.69 94.5144 26.15 94.5144 25.514C94.5144 24.566 94.2624 23.84 93.7584 23.336C93.2664 22.82 92.6604 22.562 91.9404 22.562C91.2204 22.562 90.6144 22.82 90.1224 23.336C89.6424 23.84 89.4024 24.566 89.4024 25.514C89.4024 26.462 89.6364 27.194 90.1044 27.71C90.5844 28.214 91.1844 28.466 91.9044 28.466ZM104.481 20.384C105.669 20.384 106.629 20.762 107.361 21.518C108.093 22.262 108.459 23.306 108.459 24.65V30.5H105.939V24.992C105.939 24.2 105.741 23.594 105.345 23.174C104.949 22.742 104.409 22.526 103.725 22.526C103.029 22.526 102.477 22.742 102.069 23.174C101.673 23.594 101.475 24.2 101.475 24.992V30.5H98.9549V20.528H101.475V21.77C101.811 21.338 102.237 21.002 102.753 20.762C103.281 20.51 103.857 20.384 104.481 20.384ZM120.125 25.298C120.125 25.658 120.101 25.982 120.053 26.27H112.763C112.823 26.99 113.075 27.554 113.519 27.962C113.963 28.37 114.509 28.574 115.157 28.574C116.093 28.574 116.759 28.172 117.155 27.368H119.873C119.585 28.328 119.033 29.12 118.217 29.744C117.401 30.356 116.399 30.662 115.211 30.662C114.251 30.662 113.387 30.452 112.619 30.032C111.863 29.6 111.269 28.994 110.837 28.214C110.417 27.434 110.207 26.534 110.207 25.514C110.207 24.482 110.417 23.576 110.837 22.796C111.257 22.016 111.845 21.416 112.601 20.996C113.357 20.576 114.227 20.366 115.211 20.366C116.159 20.366 117.005 20.57 117.749 20.978C118.505 21.386 119.087 21.968 119.495 22.724C119.915 23.468 120.125 24.326 120.125 25.298ZM117.515 24.578C117.503 23.93 117.269 23.414 116.813 23.03C116.357 22.634 115.799 22.436 115.139 22.436C114.515 22.436 113.987 22.628 113.555 23.012C113.135 23.384 112.877 23.906 112.781 24.578H117.515ZM125.781 30.662C124.965 30.662 124.233 30.518 123.585 30.23C122.937 29.93 122.421 29.528 122.037 29.024C121.665 28.52 121.461 27.962 121.425 27.35H123.963C124.011 27.734 124.197 28.052 124.521 28.304C124.857 28.556 125.271 28.682 125.763 28.682C126.243 28.682 126.615 28.586 126.879 28.394C127.155 28.202 127.293 27.956 127.293 27.656C127.293 27.332 127.125 27.092 126.789 26.936C126.465 26.768 125.943 26.588 125.223 26.396C124.479 26.216 123.867 26.03 123.387 25.838C122.919 25.646 122.511 25.352 122.163 24.956C121.827 24.56 121.659 24.026 121.659 23.354C121.659 22.802 121.815 22.298 122.127 21.842C122.451 21.386 122.907 21.026 123.495 20.762C124.095 20.498 124.797 20.366 125.601 20.366C126.789 20.366 127.737 20.666 128.445 21.266C129.153 21.854 129.543 22.652 129.615 23.66H127.203C127.167 23.264 126.999 22.952 126.699 22.724C126.411 22.484 126.021 22.364 125.529 22.364C125.073 22.364 124.719 22.448 124.467 22.616C124.227 22.784 124.107 23.018 124.107 23.318C124.107 23.654 124.275 23.912 124.611 24.092C124.947 24.26 125.469 24.434 126.177 24.614C126.897 24.794 127.491 24.98 127.959 25.172C128.427 25.364 128.829 25.664 129.165 26.072C129.513 26.468 129.693 26.996 129.705 27.656C129.705 28.232 129.543 28.748 129.219 29.204C128.907 29.66 128.451 30.02 127.851 30.284C127.263 30.536 126.573 30.662 125.781 30.662ZM133.051 19.34C132.607 19.34 132.235 19.202 131.935 18.926C131.647 18.638 131.503 18.284 131.503 17.864C131.503 17.444 131.647 17.096 131.935 16.82C132.235 16.532 132.607 16.388 133.051 16.388C133.495 16.388 133.861 16.532 134.149 16.82C134.449 17.096 134.599 17.444 134.599 17.864C134.599 18.284 134.449 18.638 134.149 18.926C133.861 19.202 133.495 19.34 133.051 19.34ZM134.293 20.528V30.5H131.773V20.528H134.293ZM136.135 25.478C136.135 24.47 136.333 23.576 136.729 22.796C137.137 22.016 137.683 21.416 138.367 20.996C139.063 20.576 139.837 20.366 140.689 20.366C141.433 20.366 142.081 20.516 142.633 20.816C143.197 21.116 143.647 21.494 143.983 21.95V20.528H146.521V30.5H143.983V29.042C143.659 29.51 143.209 29.9 142.633 30.212C142.069 30.512 141.415 30.662 140.671 30.662C139.831 30.662 139.063 30.446 138.367 30.014C137.683 29.582 137.137 28.976 136.729 28.196C136.333 27.404 136.135 26.498 136.135 25.478ZM143.983 25.514C143.983 24.902 143.863 24.38 143.623 23.948C143.383 23.504 143.059 23.168 142.651 22.94C142.243 22.7 141.805 22.58 141.337 22.58C140.869 22.58 140.437 22.694 140.041 22.922C139.645 23.15 139.321 23.486 139.069 23.93C138.829 24.362 138.709 24.878 138.709 25.478C138.709 26.078 138.829 26.606 139.069 27.062C139.321 27.506 139.645 27.848 140.041 28.088C140.449 28.328 140.881 28.448 141.337 28.448C141.805 28.448 142.243 28.334 142.651 28.106C143.059 27.866 143.383 27.53 143.623 27.098C143.863 26.654 143.983 26.126 143.983 25.514ZM155.791 19.97V23.12H160.021V25.118H155.791V28.448H160.561V30.5H153.271V17.918H160.561V19.97H155.791ZM166.667 30.662C165.851 30.662 165.119 30.518 164.471 30.23C163.823 29.93 163.307 29.528 162.923 29.024C162.551 28.52 162.347 27.962 162.311 27.35H164.849C164.897 27.734 165.083 28.052 165.407 28.304C165.743 28.556 166.157 28.682 166.649 28.682C167.129 28.682 167.501 28.586 167.765 28.394C168.041 28.202 168.179 27.956 168.179 27.656C168.179 27.332 168.011 27.092 167.675 26.936C167.351 26.768 166.829 26.588 166.109 26.396C165.365 26.216 164.753 26.03 164.273 25.838C163.805 25.646 163.397 25.352 163.049 24.956C162.713 24.56 162.545 24.026 162.545 23.354C162.545 22.802 162.701 22.298 163.013 21.842C163.337 21.386 163.793 21.026 164.381 20.762C164.981 20.498 165.683 20.366 166.487 20.366C167.675 20.366 168.623 20.666 169.331 21.266C170.039 21.854 170.429 22.652 170.501 23.66H168.089C168.053 23.264 167.885 22.952 167.585 22.724C167.297 22.484 166.907 22.364 166.415 22.364C165.959 22.364 165.605 22.448 165.353 22.616C165.113 22.784 164.993 23.018 164.993 23.318C164.993 23.654 165.161 23.912 165.497 24.092C165.833 24.26 166.355 24.434 167.063 24.614C167.783 24.794 168.377 24.98 168.845 25.172C169.313 25.364 169.715 25.664 170.051 26.072C170.399 26.468 170.579 26.996 170.591 27.656C170.591 28.232 170.429 28.748 170.105 29.204C169.793 29.66 169.337 30.02 168.737 30.284C168.149 30.536 167.459 30.662 166.667 30.662ZM175.594 22.598V27.422C175.594 27.758 175.672 28.004 175.828 28.16C175.996 28.304 176.272 28.376 176.656 28.376H177.826V30.5H176.242C174.118 30.5 173.056 29.468 173.056 27.404V22.598H171.868V20.528H173.056V18.062H175.594V20.528H177.826V22.598H175.594ZM178.99 25.478C178.99 24.47 179.188 23.576 179.584 22.796C179.992 22.016 180.538 21.416 181.222 20.996C181.918 20.576 182.692 20.366 183.544 20.366C184.288 20.366 184.936 20.516 185.488 20.816C186.052 21.116 186.502 21.494 186.838 21.95V20.528H189.376V30.5H186.838V29.042C186.514 29.51 186.064 29.9 185.488 30.212C184.924 30.512 184.27 30.662 183.526 30.662C182.686 30.662 181.918 30.446 181.222 30.014C180.538 29.582 179.992 28.976 179.584 28.196C179.188 27.404 178.99 26.498 178.99 25.478ZM186.838 25.514C186.838 24.902 186.718 24.38 186.478 23.948C186.238 23.504 185.914 23.168 185.506 22.94C185.098 22.7 184.66 22.58 184.192 22.58C183.724 22.58 183.292 22.694 182.896 22.922C182.5 23.15 182.176 23.486 181.924 23.93C181.684 24.362 181.564 24.878 181.564 25.478C181.564 26.078 181.684 26.606 181.924 27.062C182.176 27.506 182.5 27.848 182.896 28.088C183.304 28.328 183.736 28.448 184.192 28.448C184.66 28.448 185.098 28.334 185.506 28.106C185.914 27.866 186.238 27.53 186.478 27.098C186.718 26.654 186.838 26.126 186.838 25.514ZM194.772 22.598V27.422C194.772 27.758 194.85 28.004 195.006 28.16C195.174 28.304 195.45 28.376 195.834 28.376H197.004V30.5H195.42C193.296 30.5 192.234 29.468 192.234 27.404V22.598H191.046V20.528H192.234V18.062H194.772V20.528H197.004V22.598H194.772ZM208.086 25.298C208.086 25.658 208.062 25.982 208.014 26.27H200.724C200.784 26.99 201.036 27.554 201.48 27.962C201.924 28.37 202.47 28.574 203.118 28.574C204.054 28.574 204.72 28.172 205.116 27.368H207.834C207.546 28.328 206.994 29.12 206.178 29.744C205.362 30.356 204.36 30.662 203.172 30.662C202.212 30.662 201.348 30.452 200.58 30.032C199.824 29.6 199.23 28.994 198.798 28.214C198.378 27.434 198.168 26.534 198.168 25.514C198.168 24.482 198.378 23.576 198.798 22.796C199.218 22.016 199.806 21.416 200.562 20.996C201.318 20.576 202.188 20.366 203.172 20.366C204.12 20.366 204.966 20.57 205.71 20.978C206.466 21.386 207.048 21.968 207.456 22.724C207.876 23.468 208.086 24.326 208.086 25.298ZM205.476 24.578C205.464 23.93 205.23 23.414 204.774 23.03C204.318 22.634 203.76 22.436 203.1 22.436C202.476 22.436 201.948 22.628 201.516 23.012C201.096 23.384 200.838 23.906 200.742 24.578H205.476Z" fill="#0067FF"/>
</svg>
